<mxfile host="app.diagrams.net" modified="2023-11-14T14:50:10.212Z" agent="Mozilla/5.0 (Windows NT 10.0; Win64; x64) AppleWebKit/537.36 (KHTML, like Gecko) Chrome/119.0.0.0 Safari/537.36" etag="25ktEexKOi1iMlfH0ruL" version="22.1.0" type="device">
  <diagram name="Страница — 1" id="qOUhVUbfRyW9krve8uwG">
    <mxGraphModel dx="951" dy="545" grid="0" gridSize="10" guides="1" tooltips="1" connect="1" arrows="1" fold="1" page="1" pageScale="1" pageWidth="827" pageHeight="1169" background="#FFFFFF" math="0" shadow="0">
      <root>
        <mxCell id="0" />
        <mxCell id="1" parent="0" />
        <mxCell id="4RLCPVnjVEkTh-LawadL-70" value="&lt;p style=&quot;margin:0px;margin-top:4px;text-align:center;&quot;&gt;&lt;b&gt;Administrator&lt;/b&gt;&lt;/p&gt;&lt;hr size=&quot;1&quot;&gt;&lt;div style=&quot;height:2px;&quot;&gt;&lt;/div&gt;" style="verticalAlign=top;align=left;overflow=fill;fontSize=12;fontFamily=Helvetica;html=1;whiteSpace=wrap;" vertex="1" parent="1">
          <mxGeometry x="465" y="45" width="180" height="380" as="geometry" />
        </mxCell>
        <mxCell id="4RLCPVnjVEkTh-LawadL-71" value="&lt;p style=&quot;margin:0px;margin-top:4px;text-align:center;&quot;&gt;&lt;b&gt;Consultant&lt;/b&gt;&lt;/p&gt;&lt;hr size=&quot;1&quot;&gt;&lt;div style=&quot;height:2px;&quot;&gt;&lt;/div&gt;" style="verticalAlign=top;align=left;overflow=fill;fontSize=12;fontFamily=Helvetica;html=1;whiteSpace=wrap;" vertex="1" parent="1">
          <mxGeometry x="285" y="45" width="180" height="380" as="geometry" />
        </mxCell>
        <mxCell id="4RLCPVnjVEkTh-LawadL-72" value="&lt;p style=&quot;margin:0px;margin-top:4px;text-align:center;&quot;&gt;&lt;b&gt;Sales person&lt;/b&gt;&lt;/p&gt;&lt;hr size=&quot;1&quot;&gt;&lt;div style=&quot;height:2px;&quot;&gt;&lt;/div&gt;" style="verticalAlign=top;align=left;overflow=fill;fontSize=12;fontFamily=Helvetica;html=1;whiteSpace=wrap;" vertex="1" parent="1">
          <mxGeometry x="105" y="45" width="180" height="380" as="geometry" />
        </mxCell>
        <mxCell id="4RLCPVnjVEkTh-LawadL-75" value="&lt;font style=&quot;font-size: 10px;&quot;&gt;set-up appointment with a client&lt;/font&gt;" style="html=1;whiteSpace=wrap;" vertex="1" parent="1">
          <mxGeometry x="115" y="121" width="160" height="33" as="geometry" />
        </mxCell>
        <mxCell id="4RLCPVnjVEkTh-LawadL-76" value="" style="ellipse;html=1;shape=startState;fillColor=#000000;strokeColor=none;" vertex="1" parent="1">
          <mxGeometry x="180" y="72" width="30" height="30" as="geometry" />
        </mxCell>
        <mxCell id="4RLCPVnjVEkTh-LawadL-77" value="" style="edgeStyle=orthogonalEdgeStyle;html=1;verticalAlign=bottom;endArrow=open;endSize=6;strokeColor=#000000;entryX=0.5;entryY=0;entryDx=0;entryDy=0;" edge="1" source="4RLCPVnjVEkTh-LawadL-76" parent="1" target="4RLCPVnjVEkTh-LawadL-75">
          <mxGeometry relative="1" as="geometry">
            <mxPoint x="195" y="162" as="targetPoint" />
          </mxGeometry>
        </mxCell>
        <mxCell id="4RLCPVnjVEkTh-LawadL-78" value="" style="strokeWidth=2;html=1;shape=mxgraph.flowchart.decision;whiteSpace=wrap;" vertex="1" parent="1">
          <mxGeometry x="181" y="178" width="28" height="27" as="geometry" />
        </mxCell>
        <mxCell id="4RLCPVnjVEkTh-LawadL-79" value="" style="endArrow=open;endFill=1;endSize=6;html=1;exitX=0.5;exitY=1;exitDx=0;exitDy=0;entryX=0.5;entryY=0;entryDx=0;entryDy=0;entryPerimeter=0;" edge="1" parent="1" source="4RLCPVnjVEkTh-LawadL-75" target="4RLCPVnjVEkTh-LawadL-78">
          <mxGeometry width="160" relative="1" as="geometry">
            <mxPoint x="338" y="190" as="sourcePoint" />
            <mxPoint x="498" y="190" as="targetPoint" />
          </mxGeometry>
        </mxCell>
        <mxCell id="4RLCPVnjVEkTh-LawadL-80" value="Prepare a conference room" style="html=1;whiteSpace=wrap;" vertex="1" parent="1">
          <mxGeometry x="478" y="177" width="161" height="28" as="geometry" />
        </mxCell>
        <mxCell id="4RLCPVnjVEkTh-LawadL-81" value="" style="endArrow=open;endFill=1;endSize=6;html=1;exitX=1;exitY=0.5;exitDx=0;exitDy=0;entryX=0;entryY=0.5;entryDx=0;entryDy=0;exitPerimeter=0;" edge="1" parent="1" source="4RLCPVnjVEkTh-LawadL-78" target="4RLCPVnjVEkTh-LawadL-80">
          <mxGeometry width="160" relative="1" as="geometry">
            <mxPoint x="205" y="164" as="sourcePoint" />
            <mxPoint x="205" y="188" as="targetPoint" />
          </mxGeometry>
        </mxCell>
        <mxCell id="4RLCPVnjVEkTh-LawadL-82" value="Prepare a laptop" style="html=1;whiteSpace=wrap;" vertex="1" parent="1">
          <mxGeometry x="294.5" y="205.5" width="161" height="28" as="geometry" />
        </mxCell>
        <mxCell id="4RLCPVnjVEkTh-LawadL-83" value="" style="endArrow=open;endFill=1;endSize=6;html=1;exitX=0.5;exitY=1;exitDx=0;exitDy=0;entryX=0;entryY=0.5;entryDx=0;entryDy=0;exitPerimeter=0;rounded=0;edgeStyle=orthogonalEdgeStyle;" edge="1" parent="1" source="4RLCPVnjVEkTh-LawadL-78" target="4RLCPVnjVEkTh-LawadL-82">
          <mxGeometry width="160" relative="1" as="geometry">
            <mxPoint x="219" y="202" as="sourcePoint" />
            <mxPoint x="488" y="201" as="targetPoint" />
          </mxGeometry>
        </mxCell>
        <mxCell id="4RLCPVnjVEkTh-LawadL-84" value="Meet the client" style="html=1;whiteSpace=wrap;" vertex="1" parent="1">
          <mxGeometry x="294.5" y="251" width="161" height="28" as="geometry" />
        </mxCell>
        <mxCell id="4RLCPVnjVEkTh-LawadL-89" value="" style="endArrow=open;endFill=1;endSize=6;html=1;exitX=0.5;exitY=1;exitDx=0;exitDy=0;entryX=1;entryY=0.5;entryDx=0;entryDy=0;edgeStyle=orthogonalEdgeStyle;rounded=0;" edge="1" parent="1" source="4RLCPVnjVEkTh-LawadL-80" target="4RLCPVnjVEkTh-LawadL-84">
          <mxGeometry width="160" relative="1" as="geometry">
            <mxPoint x="215" y="174" as="sourcePoint" />
            <mxPoint x="215" y="198" as="targetPoint" />
          </mxGeometry>
        </mxCell>
        <mxCell id="4RLCPVnjVEkTh-LawadL-90" value="Send a follow-up letter" style="html=1;whiteSpace=wrap;" vertex="1" parent="1">
          <mxGeometry x="114" y="251" width="161" height="28" as="geometry" />
        </mxCell>
        <mxCell id="4RLCPVnjVEkTh-LawadL-91" value="" style="endArrow=open;endFill=1;endSize=6;html=1;exitX=0;exitY=0.5;exitDx=0;exitDy=0;entryX=1;entryY=0.5;entryDx=0;entryDy=0;" edge="1" parent="1" source="4RLCPVnjVEkTh-LawadL-84" target="4RLCPVnjVEkTh-LawadL-90">
          <mxGeometry width="160" relative="1" as="geometry">
            <mxPoint x="385" y="243" as="sourcePoint" />
            <mxPoint x="385" y="262" as="targetPoint" />
          </mxGeometry>
        </mxCell>
        <mxCell id="4RLCPVnjVEkTh-LawadL-92" value="" style="strokeWidth=2;html=1;shape=mxgraph.flowchart.decision;whiteSpace=wrap;" vertex="1" parent="1">
          <mxGeometry x="180.5" y="294" width="28" height="27" as="geometry" />
        </mxCell>
        <mxCell id="4RLCPVnjVEkTh-LawadL-93" value="" style="endArrow=open;endFill=1;endSize=6;html=1;exitX=0.5;exitY=1;exitDx=0;exitDy=0;entryX=0.5;entryY=0;entryDx=0;entryDy=0;entryPerimeter=0;" edge="1" parent="1" source="4RLCPVnjVEkTh-LawadL-90" target="4RLCPVnjVEkTh-LawadL-92">
          <mxGeometry width="160" relative="1" as="geometry">
            <mxPoint x="205" y="164" as="sourcePoint" />
            <mxPoint x="205" y="188" as="targetPoint" />
          </mxGeometry>
        </mxCell>
        <mxCell id="4RLCPVnjVEkTh-LawadL-94" value="Create proposal" style="html=1;whiteSpace=wrap;" vertex="1" parent="1">
          <mxGeometry x="294.5" y="293.5" width="161" height="28" as="geometry" />
        </mxCell>
        <mxCell id="4RLCPVnjVEkTh-LawadL-95" value="Send proposal" style="html=1;whiteSpace=wrap;" vertex="1" parent="1">
          <mxGeometry x="294.5" y="337" width="161" height="28" as="geometry" />
        </mxCell>
        <mxCell id="4RLCPVnjVEkTh-LawadL-96" value="" style="ellipse;html=1;shape=endState;fillColor=#000000;strokeColor=#000000;" vertex="1" parent="1">
          <mxGeometry x="360" y="384" width="30" height="30" as="geometry" />
        </mxCell>
        <mxCell id="4RLCPVnjVEkTh-LawadL-98" value="" style="endArrow=open;endFill=1;endSize=6;html=1;exitX=0.5;exitY=1;exitDx=0;exitDy=0;entryX=0.5;entryY=0;entryDx=0;entryDy=0;" edge="1" parent="1" source="4RLCPVnjVEkTh-LawadL-94" target="4RLCPVnjVEkTh-LawadL-95">
          <mxGeometry width="160" relative="1" as="geometry">
            <mxPoint x="385" y="243" as="sourcePoint" />
            <mxPoint x="385" y="262" as="targetPoint" />
          </mxGeometry>
        </mxCell>
        <mxCell id="4RLCPVnjVEkTh-LawadL-99" value="" style="endArrow=open;endFill=1;endSize=6;html=1;exitX=0.5;exitY=1;exitDx=0;exitDy=0;entryX=0.5;entryY=0;entryDx=0;entryDy=0;" edge="1" parent="1" source="4RLCPVnjVEkTh-LawadL-95" target="4RLCPVnjVEkTh-LawadL-96">
          <mxGeometry width="160" relative="1" as="geometry">
            <mxPoint x="395" y="253" as="sourcePoint" />
            <mxPoint x="395" y="272" as="targetPoint" />
          </mxGeometry>
        </mxCell>
        <mxCell id="4RLCPVnjVEkTh-LawadL-100" value="" style="endArrow=open;endFill=1;endSize=6;html=1;exitX=1;exitY=0.5;exitDx=0;exitDy=0;exitPerimeter=0;entryX=0;entryY=0.5;entryDx=0;entryDy=0;" edge="1" parent="1" source="4RLCPVnjVEkTh-LawadL-92" target="4RLCPVnjVEkTh-LawadL-94">
          <mxGeometry width="160" relative="1" as="geometry">
            <mxPoint x="405" y="263" as="sourcePoint" />
            <mxPoint x="405" y="282" as="targetPoint" />
          </mxGeometry>
        </mxCell>
        <mxCell id="4RLCPVnjVEkTh-LawadL-101" value="" style="endArrow=open;endFill=1;endSize=6;html=1;exitX=0.5;exitY=1;exitDx=0;exitDy=0;exitPerimeter=0;entryX=0;entryY=0.5;entryDx=0;entryDy=0;edgeStyle=orthogonalEdgeStyle;rounded=0;" edge="1" parent="1" source="4RLCPVnjVEkTh-LawadL-92" target="4RLCPVnjVEkTh-LawadL-96">
          <mxGeometry width="160" relative="1" as="geometry">
            <mxPoint x="415" y="273" as="sourcePoint" />
            <mxPoint x="415" y="292" as="targetPoint" />
          </mxGeometry>
        </mxCell>
        <mxCell id="4RLCPVnjVEkTh-LawadL-102" value="(Our office)" style="text;html=1;align=center;verticalAlign=middle;resizable=0;points=[];autosize=1;strokeColor=none;fillColor=none;" vertex="1" parent="1">
          <mxGeometry x="197" y="167" width="78" height="26" as="geometry" />
        </mxCell>
        <mxCell id="4RLCPVnjVEkTh-LawadL-103" value="(Client&#39;s office)" style="text;html=1;align=center;verticalAlign=middle;resizable=0;points=[];autosize=1;strokeColor=none;fillColor=none;" vertex="1" parent="1">
          <mxGeometry x="188" y="198" width="97" height="26" as="geometry" />
        </mxCell>
        <mxCell id="4RLCPVnjVEkTh-LawadL-104" value="&lt;b&gt;Deal?&lt;/b&gt;" style="text;html=1;align=center;verticalAlign=middle;resizable=0;points=[];autosize=1;strokeColor=none;fillColor=none;" vertex="1" parent="1">
          <mxGeometry x="128" y="294" width="51" height="26" as="geometry" />
        </mxCell>
        <mxCell id="4RLCPVnjVEkTh-LawadL-105" value="(yes)" style="text;html=1;align=center;verticalAlign=middle;resizable=0;points=[];autosize=1;strokeColor=none;fillColor=none;" vertex="1" parent="1">
          <mxGeometry x="210" y="287" width="45" height="26" as="geometry" />
        </mxCell>
        <mxCell id="4RLCPVnjVEkTh-LawadL-106" value="(no)" style="text;html=1;align=center;verticalAlign=middle;resizable=0;points=[];autosize=1;strokeColor=none;fillColor=none;" vertex="1" parent="1">
          <mxGeometry x="188" y="324" width="39" height="26" as="geometry" />
        </mxCell>
        <mxCell id="4RLCPVnjVEkTh-LawadL-107" value="" style="endArrow=open;endFill=1;endSize=6;html=1;exitX=0.5;exitY=1;exitDx=0;exitDy=0;entryX=0.5;entryY=0;entryDx=0;entryDy=0;" edge="1" parent="1" source="4RLCPVnjVEkTh-LawadL-82" target="4RLCPVnjVEkTh-LawadL-84">
          <mxGeometry width="160" relative="1" as="geometry">
            <mxPoint x="385" y="332" as="sourcePoint" />
            <mxPoint x="385" y="347" as="targetPoint" />
          </mxGeometry>
        </mxCell>
      </root>
    </mxGraphModel>
  </diagram>
</mxfile>
